<svg width="61" height="62" viewBox="0 0 61 62" fill="none" xmlns="http://www.w3.org/2000/svg">
<path d="M61 4.62386V9.26775C60.6665 9.81641 60.17 9.98318 59.545 9.97681C57.5413 9.95644 55.5363 9.96917 53.5313 9.96917H52.9025C52.891 10.1805 52.8808 10.2989 52.8795 10.4173C52.8605 11.7425 52.5957 11.9983 51.2463 11.9996H49.846V59.737H51.576C51.4627 59.5563 51.3838 59.4264 51.3036 59.2991C50.359 57.7983 50.9611 55.7284 52.5766 55.0206C52.9661 54.85 53.0425 54.7049 52.947 54.2797C52.5651 52.6133 53.6382 51.0374 55.3288 50.6746C55.7179 50.5924 56.1196 50.5892 56.51 50.665C56.9004 50.7408 57.2716 50.8942 57.6017 51.116C57.9318 51.3379 58.214 51.6237 58.4317 51.9565C58.6494 52.2893 58.7981 52.6625 58.869 53.0538C58.9747 53.6165 58.8855 54.2148 58.8855 54.8538C60.0312 55.2013 60.6677 56.1001 60.9949 57.2725V58.226L60.3075 59.7739H60.9949V61.7891H0.0641281V59.9624C0.46003 59.7078 0.783372 59.5728 1.01633 59.3437C2.39117 57.9968 3.74437 56.6271 5.10775 55.2701C5.883 54.4974 6.35147 54.4948 7.11654 55.2574C8.4099 56.5456 9.75673 57.7868 10.9699 59.1476C11.6599 59.9216 12.4084 59.7447 13.2613 59.7396V14.0682H15.2981V18.1062H28.4482V20.1277H15.3006V23.1396H21.3257L21.3894 22.1785H23.3511C23.3778 22.5184 23.402 22.8239 23.4249 23.1282H29.5073V21.1805H31.5441V23.1294H37.6545V19.1704H39.6913V59.7294H43.686V11.9996H42.7707C42.4524 11.9996 42.1342 12.0111 41.8185 11.9996C41.0954 11.964 40.7288 11.6177 40.6728 10.8946C40.6498 10.6057 40.6728 10.3142 40.6728 10.0163H6.14269C6.12996 10.1347 6.11341 10.211 6.11341 10.2874C6.11341 16.2018 6.11766 22.1161 6.12614 28.0305C6.14276 28.1446 6.18391 28.2538 6.24676 28.3505C6.30962 28.4471 6.39267 28.5291 6.49022 28.5906C7.68175 29.2678 8.33352 30.4517 8.08656 31.7731C7.98345 32.3192 7.68811 32.8297 7.45006 33.4191C8.18586 34.4018 8.99166 35.433 9.74146 36.5035C9.97884 36.8374 10.1214 37.2294 10.1539 37.6378C10.2061 38.8459 10.2048 40.0565 10.1539 41.2671C10.1233 41.6503 9.97627 42.015 9.73255 42.3122C9.20563 42.9329 8.62873 43.5094 8.00764 44.0359C7.69562 44.2975 7.31082 44.457 6.90522 44.4929C5.71784 44.5525 4.52821 44.5525 3.34083 44.4929C2.91961 44.4508 2.52061 44.2836 2.19513 44.013C1.5929 43.5221 1.04032 42.9734 0.545321 42.3746C0.264161 42.032 0.0905491 41.6139 0.0463062 41.1729C-0.0154354 40.0429 -0.0154354 38.9104 0.0463062 37.7804C0.0703182 37.3338 0.211233 36.9014 0.454939 36.5265C1.12199 35.5424 1.85524 34.6068 2.58466 33.6622C2.7667 33.4242 2.76416 33.2638 2.61522 32.985C2.34661 32.486 2.17985 31.9322 1.93798 31.3224H4.03588C4.06771 31.3899 4.10335 31.4587 4.1339 31.5299C4.3885 32.1461 4.75513 32.3803 5.31143 32.2657C5.80408 32.1652 6.06122 31.838 6.09687 31.3504C6.13633 30.8158 5.80917 30.4594 5.17649 30.304C4.2943 30.0902 4.08171 29.8241 4.08171 28.8936C4.08171 22.8197 4.08171 16.7462 4.08171 10.6731V9.96917C3.06968 9.96917 2.15694 9.98063 1.24547 9.96917C0.486764 9.95263 0.0513982 9.6051 0.0361222 8.9355C0.00684324 7.58612 0.0106622 6.23547 0.0348492 4.88609C0.0463062 4.28524 0.416749 3.94407 1.00742 3.88424C1.24292 3.8677 1.48225 3.8677 1.7203 3.8677H40.6651C40.6651 3.28594 40.6855 2.80983 40.6651 2.3401C40.6308 1.7036 40.7848 1.17021 41.3525 0.8125H52.1909C52.7561 1.16639 52.9254 1.69214 52.8885 2.33119C52.8592 2.82002 52.8821 3.3114 52.8821 3.8677H53.5911C55.6139 3.8677 57.6367 3.87915 59.6595 3.86133C60.2731 3.85624 60.7378 4.04082 61 4.62386ZM15.3121 28.9559V59.7167H37.5896V37.3883H36.9149C34.9112 37.3883 32.9062 37.3755 30.9025 37.3972C30.6466 37.41 30.3909 37.3667 30.1534 37.2704C29.916 37.1741 29.7024 37.0271 29.5277 36.8396C28.4855 35.7779 27.4247 34.7341 26.3452 33.708C26.1303 33.5192 25.8592 33.4065 25.5737 33.3872C24.6432 33.3491 23.7088 33.3758 22.7731 33.3707C21.6873 33.3707 21.3601 33.0334 21.3563 31.9424C21.3563 30.9571 21.3563 29.9705 21.3563 28.9559H15.3121ZM31.5683 35.3235H37.5998V25.2541H31.5683V35.3235ZM23.4211 25.2362V31.3275C24.288 31.3275 25.118 31.3492 25.9467 31.3212C26.5629 31.3008 27.0606 31.4777 27.4743 31.9437C28.0612 32.6005 28.6748 33.2358 29.2769 33.8799L29.4373 33.7526V25.2362H23.4211ZM2.05255 38.4525C2.05255 39.2774 2.04109 40.0285 2.06146 40.7795C2.08417 40.9488 2.15435 41.1081 2.26387 41.2391C2.95383 42.162 3.79783 42.7374 5.03137 42.4981C5.37635 42.4306 5.74297 42.4879 6.10068 42.4879C6.63662 42.4879 8.06747 41.4962 8.11075 40.9794C8.18331 40.143 8.13112 39.2965 8.13112 38.4525H2.05255ZM50.7906 9.93608V2.87858H48.8123V3.56218C48.8123 4.93065 48.8225 6.29912 48.8123 7.66887C48.8034 8.57524 48.4419 8.92659 47.5393 8.93168C46.1505 8.94059 44.7616 8.93168 43.3728 8.93168C43.164 8.93168 42.9552 8.9495 42.6981 8.96096C42.7159 9.33649 42.7287 9.63947 42.7427 9.93226L50.7906 9.93608ZM42.7452 2.86585V6.87197H46.7335V2.86585H42.7452ZM21.3308 25.2541H15.3096V26.8542H21.3308V25.2541ZM3.64634 59.7192H8.53338L6.10832 57.2585L3.64634 59.7192ZM7.11399 36.3559C6.60479 35.6837 6.22289 35.0281 5.69333 34.5304C5.47437 34.3267 4.77549 34.2911 4.57563 34.4782C4.01933 35.0001 3.6107 35.6799 3.09768 36.3559H7.11399ZM30.168 7.90564C29.2451 7.29079 28.4787 6.77268 27.7009 6.27366C27.6394 6.23576 27.5702 6.21219 27.4984 6.2047C27.4265 6.19721 27.3539 6.20598 27.2859 6.23038C26.4788 6.73958 25.6883 7.2806 24.7501 7.90564H30.168ZM17.755 7.90564L17.8123 7.80253C17.0306 7.27806 16.2528 6.74976 15.4623 6.23929C15.4057 6.20837 15.3427 6.19091 15.2782 6.18826C15.2138 6.18561 15.1496 6.19785 15.0906 6.22401C14.2886 6.73321 13.5006 7.27424 12.7075 7.80253L12.7585 7.90564H17.755ZM45.7826 25.8689C46.3873 24.9638 46.9015 24.214 47.3904 23.4502C47.4668 23.3293 47.5062 23.0925 47.44 22.9869C46.9308 22.1772 46.3911 21.3854 45.7851 20.4727L45.7826 25.8689ZM47.7697 14.4718C47.7134 14.5122 47.6605 14.5573 47.6119 14.6067C47.2724 15.1159 46.9329 15.6251 46.5935 16.1343C45.9646 17.0776 45.9633 17.0776 46.6049 18.0362C46.9639 18.5734 47.3255 19.108 47.7748 19.7764L47.7697 14.4718ZM45.7864 50.257C46.3898 49.3519 46.9092 48.5843 47.4095 47.804C47.4472 47.7429 47.4708 47.6741 47.4785 47.6028C47.4862 47.5314 47.4778 47.4592 47.454 47.3915C46.9448 46.5819 46.4 45.7875 45.7864 44.8659V50.257ZM47.7532 31.9589V26.578C47.1345 27.5098 46.5986 28.3029 46.0843 29.1074C46.06 29.1657 46.0496 29.2287 46.0538 29.2917C46.058 29.3546 46.0767 29.4157 46.1085 29.4702C46.6164 30.2608 47.1421 31.0411 47.7532 31.9589ZM45.8068 32.7049V38.0299C46.3936 37.1515 46.9181 36.3877 47.4095 35.6023C47.4439 35.5211 47.4597 35.4332 47.4558 35.3451C47.4518 35.257 47.4282 35.1708 47.3866 35.0931C46.9003 34.3178 46.3834 33.568 45.8068 32.7049ZM47.7583 38.7682C47.1549 39.6733 46.6482 40.4231 46.1505 41.1869C46.0817 41.2926 45.9939 41.4797 46.0385 41.5497C46.5667 42.381 47.1192 43.1982 47.7583 44.1568V38.7682ZM47.7583 51.1545L47.6564 51.1163C47.1409 51.8877 46.6215 52.6566 46.1161 53.4344C46.0816 53.488 46.0595 53.5486 46.0513 53.6118C46.0432 53.675 46.0492 53.7392 46.069 53.7998C46.5909 54.617 47.1345 55.4216 47.7583 56.361V51.1545ZM6.49659 5.94014L9.16988 7.72233L11.8432 5.94014H6.49659ZM21.3627 7.72233L24.036 5.94014H18.6995L21.3627 7.72233ZM36.1944 5.96305H30.9241L33.5605 7.72233L36.1944 5.96305ZM2.0831 7.89037H5.75825C4.72839 7.20422 3.83729 6.58427 2.91437 6.01652C2.69796 5.88922 2.3708 5.92995 2.0831 5.88922V7.89037ZM37.1695 7.89037H40.6142V5.83957C39.1439 6.06489 38.2872 7.20804 37.1695 7.89291V7.89037ZM55.9004 52.649C55.7666 52.6541 55.6351 52.6855 55.5135 52.7414C55.3919 52.7973 55.2825 52.8767 55.1916 52.9749C55.1007 53.0732 55.03 53.1884 54.9836 53.314C54.9373 53.4396 54.9161 53.5731 54.9214 53.7068C54.932 53.9671 55.045 54.2126 55.2357 54.39C55.4264 54.5673 55.6795 54.6622 55.9398 54.654C56.2095 54.6466 56.4653 54.5326 56.6509 54.3369C56.8366 54.1412 56.9371 53.8798 56.9302 53.6101C56.9076 53.351 56.7899 53.1094 56.5997 52.9319C56.4096 52.7544 56.1604 52.6537 55.9004 52.649ZM57.9372 56.7226C57.678 56.7306 57.4317 56.8371 57.2484 57.0204C57.0651 57.2037 56.9586 57.45 56.9506 57.7091C56.9483 57.8431 56.9732 57.9761 57.0237 58.1002C57.0741 58.2243 57.1492 58.3369 57.2444 58.4312C57.3395 58.5255 57.4528 58.5996 57.5773 58.649C57.7018 58.6984 57.8351 58.7221 57.969 58.7186C58.2288 58.7142 58.4768 58.6099 58.6617 58.4273C58.8466 58.2448 58.9541 57.9981 58.9619 57.7384C58.9579 57.4687 58.8484 57.2113 58.6568 57.0214C58.4653 56.8315 58.2069 56.7242 57.9372 56.7226ZM54.8922 57.741C54.8926 57.4809 54.7936 57.2306 54.6153 57.0412C54.4371 56.8519 54.1932 56.7379 53.9336 56.7226C53.8002 56.7166 53.667 56.7374 53.5418 56.7839C53.4166 56.8303 53.302 56.9014 53.2048 56.9929C53.1076 57.0844 53.0297 57.1945 52.9758 57.3167C52.9219 57.4388 52.8931 57.5706 52.891 57.7041C52.8866 57.8326 52.9077 57.9607 52.953 58.081C52.9984 58.2014 53.0672 58.3115 53.1554 58.4052C53.2435 58.4988 53.3494 58.574 53.4668 58.6265C53.5842 58.679 53.7108 58.7077 53.8394 58.711C53.9726 58.7182 54.1059 58.6986 54.2315 58.6535C54.357 58.6083 54.4723 58.5385 54.5704 58.448C54.6685 58.3576 54.7475 58.2485 54.8028 58.1271C54.8581 58.0056 54.8884 57.8743 54.8922 57.741ZM58.9479 6.11072L56.2746 7.89291H58.9479V6.11072ZM45.8068 57.093V59.7205H47.5571L45.8068 57.093ZM52.905 7.70069L55.5401 5.9465H52.905V7.70069ZM45.7698 13.5068L45.873 13.5488L46.8443 12.0454H45.766L45.7698 13.5068Z" fill="#F1592A"/>
<path d="M29.543 39.4417H31.4817V41.4212H29.543V39.4417Z" fill="#F1592A"/>
<path d="M31.4957 55.7322V57.7015H29.5315V55.7322H31.4957Z" fill="#F1592A"/>
<path d="M31.4894 49.5683H29.5315V47.6194H31.4855L31.4894 49.5683Z" fill="#F1592A"/>
<path d="M29.5315 53.642V51.6663H31.4906V53.642H29.5315Z" fill="#F1592A"/>
<path d="M29.5315 45.4858V43.5305H31.4792V45.4858H29.5315Z" fill="#F1592A"/>
<path d="M23.3548 57.7053H21.397V55.7385H23.3548V57.7053Z" fill="#F1592A"/>
<path d="M19.2927 35.396V37.3475H17.3374V35.396H19.2927Z" fill="#F1592A"/>
<path d="M27.4107 57.6978H25.4656V55.7349H27.4107V57.6978Z" fill="#F1592A"/>
<path d="M19.2993 39.4556V41.4134H17.3325V39.4556H19.2993Z" fill="#F1592A"/>
<path d="M21.4033 35.3857H23.3485V37.3563H21.4033V35.3857Z" fill="#F1592A"/>
<path d="M27.4362 35.3872V37.34H25.458V35.3872H27.4362Z" fill="#F1592A"/>
<path d="M17.3386 43.5215H19.2901V45.4946H17.3386V43.5215Z" fill="#F1592A"/>
<path d="M19.3005 47.6182V49.5684H17.3286V47.6182H19.3005Z" fill="#F1592A"/>
<path d="M21.3843 39.4568H23.3485V41.4121H21.3843V39.4568Z" fill="#F1592A"/>
<path d="M19.2967 51.6675V53.6241H17.3337V51.6675H19.2967Z" fill="#F1592A"/>
<path d="M23.3524 51.6675V53.6343H21.3997V51.6675H23.3524Z" fill="#F1592A"/>
<path d="M33.6052 55.7349H35.5733V57.6889H33.6052V55.7349Z" fill="#F1592A"/>
<path d="M17.3271 57.6913V55.7322H19.2799V57.6913H17.3271Z" fill="#F1592A"/>
<path d="M27.422 47.5658V49.5568H25.4234C25.4234 48.975 25.403 48.4264 25.4412 47.8815C25.4501 47.7682 25.6767 47.59 25.8129 47.5798C26.3221 47.5442 26.8364 47.5658 27.422 47.5658Z" fill="#F1592A"/>
<path d="M27.4259 51.6753V53.6281H25.4731V51.6753H27.4259Z" fill="#F1592A"/>
<path d="M25.458 43.5254H27.4222V45.4794H25.458V43.5254Z" fill="#F1592A"/>
<path d="M35.5643 51.689V53.6328H33.6128V51.689H35.5643Z" fill="#F1592A"/>
<path d="M27.4172 39.4722V41.4084H25.458V39.4722H27.4172Z" fill="#F1592A"/>
<path d="M35.558 49.5683H33.6052V47.6206H35.5529L35.558 49.5683Z" fill="#F1592A"/>
<path d="M23.3524 43.5457V45.4946H21.3997V43.5457H23.3524Z" fill="#F1592A"/>
<path d="M33.6052 45.4948V43.5242H35.5567V45.4948H33.6052Z" fill="#F1592A"/>
<path d="M33.614 39.4595H35.5541V41.4212H33.614V39.4595Z" fill="#F1592A"/>
<path d="M23.351 49.5683H21.3906V47.6143H23.351V49.5683Z" fill="#F1592A"/>
</svg>
